<svg xmlns="http://www.w3.org/2000/svg" width="13" height="13"><path style="stroke:none;fill-rule:nonzero;fill:#ee4c2c;fill-opacity:1" d="m10.324 3.82-.945.946a4.039 4.039 0 0 1 0 5.707 4.039 4.039 0 0 1-5.707 0 4.039 4.039 0 0 1 0-5.707l2.515-2.52.317-.36V0l-3.82 3.82a5.338 5.338 0 0 0 0 7.594 5.338 5.338 0 0 0 7.593 0c2.157-2.11 2.157-5.527.047-7.594Zm0 0"/><path style="stroke:none;fill-rule:nonzero;fill:#ee4c2c;fill-opacity:1" d="M9.156 2.832a.72.72 0 0 1-1.441 0 .72.72 0 0 1 1.441 0Zm0 0"/></svg>